<svg height="323" viewBox="0 0 464 323" width="464" xmlns="http://www.w3.org/2000/svg"><g fill="#004566" fill-rule="evenodd"><path d="m29.648 33.873h110.602v108.852c0 1.4-.7 2.449-2.1 2.449-2.1 0-2.1-.699-2.45-6.649-.7-14.001-4.9-40.601-9.8-61.251-9.1-38.851-12.6-38.851-23.45-38.851v248.1547h13.3c1.4 0 2.099 1.0493 2.099 2.45 0 1.05-.699 2.0993-2.099 2.0993h-63.001c-1.401 0-2.101-1.0493-2.101-2.0993 0-1.4007.7-2.45 2.101-2.45h14.7v-248.1547c-10.851 0-14.351 0-23.45 38.851-4.901 20.65-9.101 47.25-9.801 61.251-.35 5.95-.35 6.649-2.449 6.649-1.401 0-2.101-1.049-2.101-2.449"/><path d="m160.547 38.423h-10.85c-1.05 0-1.75-1.05-1.75-2.1 0-1.4.7-2.45 1.75-2.45h97.302v95.55c0 1.052-1.051 1.75-2.1 1.75-1.75 0-1.75-.348-2.1-6.65-1.4-32.2-12.25-70.7-23.101-81.9-2.799-3.15-6.65-4.2-13.65-4.2h-10.5v120.052c15.05-.7 24.15-18.9 24.15-48.302v-13.3c0-1.05 1.05-2.1 2.1-2.1 1.051 0 1.75.7 1.75 2.1v127.053c0 1.0498-.699 1.7498-1.75 1.7498-1.399 0-2.1-.7-2.1-1.7498v-12.599c0-25.901-9.45-48.652-20.65-48.652-2.1 0-3.5 1.75-3.5 4.9v119.0027h5.6c31.501 0 40.251-72.1017 40.951-89.9517l.349-11.2c0-1.05.701-1.75 1.75-1.75 1.401 0 2.101.7 2.101 1.75v105.7017h-97.302c-1.05 0-1.75-1.05-1.75-2.1 0-1.4.7-2.45 1.75-2.45h11.55"/><path d="m256.441 33.873h110.602v108.852c0 1.4-.7 2.449-2.1 2.449-2.1 0-2.1-.699-2.45-6.649-.7-14.001-4.9-40.601-9.8-61.251-9.1-38.851-12.6-38.851-23.45-38.851v248.1547h13.3c1.4 0 2.1 1.0493 2.1 2.45 0 1.05-.7 2.0993-2.1 2.0993h-63c-1.402 0-2.102-1.0493-2.102-2.0993 0-1.4007.7-2.45 2.102-2.45h14.7v-248.1547c-10.852 0-14.352 0-23.45 38.851-4.902 20.65-9.102 47.25-9.802 61.251-.35 5.95-.35 6.649-2.448 6.649-1.402 0-2.102-1.049-2.102-2.449"/><path d="m386.989 38.423h-10.15c-1.05 0-2.1-1.05-2.1-2.1 0-1.4 1.05-2.45 2.1-2.45h55.651c1.05 0 1.75 1.05 1.75 2.45 0 1.05-.7 2.1-1.75 2.1h-10.5v248.1547h10.149c1.051 0 2.101 1.05 2.101 2.45 0 1.05-.7 2.1-1.75 2.1h-57.051c-1.051 0-1.751-1.05-1.751-2.1 0-1.4.7-2.45 1.751-2.45h11.55"/></g></svg>